<svg width="24" height="24" viewBox="0 0 24 24" fill="none" xmlns="http://www.w3.org/2000/svg">
<g clip-path="url(#clip0_360_260)">
<path d="M15.0016 8L12.0016 5L15.0016 2L18.0016 5L15.0016 8ZM20.0016 11L18.0016 9L20.0016 7L22.0016 9L20.0016 11ZM12.0766 22C10.6766 22 9.36406 21.7333 8.13906 21.2C6.91406 20.6667 5.8474 19.9458 4.93906 19.0375C4.03073 18.1292 3.3099 17.0625 2.77656 15.8375C2.24323 14.6125 1.97656 13.3 1.97656 11.9C1.97656 9.46667 2.75156 7.32083 4.30156 5.4625C5.85156 3.60417 7.82656 2.45 10.2266 2C9.92656 3.65 10.0182 5.2625 10.5016 6.8375C10.9849 8.4125 11.8182 9.79167 13.0016 10.975C14.1849 12.1583 15.5641 12.9917 17.1391 13.475C18.7141 13.9583 20.3266 14.05 21.9766 13.75C21.5432 16.15 20.3932 18.125 18.5266 19.675C16.6599 21.225 14.5099 22 12.0766 22ZM12.0766 20C13.5432 20 14.9016 19.6333 16.1516 18.9C17.4016 18.1667 18.3849 17.1583 19.1016 15.875C17.6682 15.7417 16.3099 15.3792 15.0266 14.7875C13.7432 14.1958 12.5932 13.3917 11.5766 12.375C10.5599 11.3583 9.75156 10.2083 9.15156 8.925C8.55156 7.64167 8.19323 6.28333 8.07656 4.85C6.79323 5.56667 5.78906 6.55417 5.06406 7.8125C4.33906 9.07083 3.97656 10.4333 3.97656 11.9C3.97656 14.15 4.76406 16.0625 6.33906 17.6375C7.91406 19.2125 9.82656 20 12.0766 20Z" fill="white"/>
</g>
<defs>
<clipPath id="clip0_360_260">
<rect width="24" height="24" fill="white"/>
</clipPath>
</defs>
</svg>
